<svg width="360" height="360" viewBox="0 0 360 360" fill="none" xmlns="http://www.w3.org/2000/svg">
<path d="M205.511 100.645C236.747 68.4075 287.394 68.4107 318.632 100.645L331.862 114.297C363.1 146.536 363.1 198.81 331.862 231.05L280.933 283.621C280.43 284.14 279.882 284.606 279.352 285.074L235.043 330.824C203.804 363.06 153.157 363.061 121.921 330.824L81.0463 288.648C78.6394 287.374 76.3709 285.702 74.3549 283.621L23.4252 231.05C-7.80852 198.811 -7.80828 146.536 23.4252 114.297L36.6557 100.645C67.8925 68.4095 118.541 68.4081 149.777 100.645L177.574 129.332L178.488 128.394L178.547 128.465L205.511 100.645Z" fill="url(#paint0_linear_10_27)"/>
<path d="M259.418 125.957C259.417 96.5866 250.472 73.4897 236.122 57.8623C221.839 42.311 201.017 32.8529 174.703 32.8529C148.392 32.8543 127.578 42.3119 113.297 57.8623C98.9458 73.4897 90.0008 96.5866 90.0001 125.957C90.0001 135.03 82.8927 142.394 74.1212 142.394C65.3496 142.394 58.2422 135.03 58.2422 125.957C58.2429 89.6092 69.4161 57.937 90.2696 35.229C111.192 12.447 140.669 0.00142598 174.703 0C208.74 0 238.225 12.4459 259.148 35.229C280.002 57.937 291.175 89.6092 291.176 125.957C291.176 135.03 284.069 142.394 275.297 142.394C266.526 142.394 259.418 135.03 259.418 125.957Z" fill="#E7E1F2"/>
<defs>
<linearGradient id="paint0_linear_10_27" x1="177.646" y1="76.4676" x2="177.646" y2="355.001" gradientUnits="userSpaceOnUse">
<stop stop-color="#6074F7"/>
<stop offset="1" stop-color="#E154F7"/>
</linearGradient>
</defs>
</svg>
