<svg width="132" height="132" viewBox="0 0 132 132" fill="none" xmlns="http://www.w3.org/2000/svg">
<g clip-path="url(#clip0_80_202)">
<rect width="132" height="132" rx="30" fill="white"/>
<rect opacity="0.8" width="132" height="132" fill="url(#paint0_linear_80_202)"/>
<path opacity="0.8" fill-rule="evenodd" clip-rule="evenodd" d="M20.7869 38.5429C19.3722 40.6649 18.6649 43.2879 18.6649 46.412V51.1865H10V61.0893H18.6649V99.1971H32.1927V61.0893H42.9796V51.1865H32.1927V47.2078C32.1927 45.1447 32.6643 43.7005 33.6074 42.8753C34.6095 42.0501 36.142 41.6375 38.2051 41.6375H42.9796V32H35.1989C31.9569 32 29.0981 32.56 26.6224 33.6799C24.1468 34.7409 22.2016 36.3619 20.7869 38.5429ZM113.512 99.197C110.27 99.197 107.412 98.6665 104.936 97.6055C102.46 96.5445 100.515 94.953 99.1004 92.831C97.6857 90.65 96.9784 88.027 96.9784 84.9619V84.785V61.0892H88.0482V51.1865H96.9784V39.8691H110.506V51.1865H121.028V61.0892H110.506V83.724V83.9009C110.506 85.905 110.978 87.3197 111.921 88.1449C112.864 88.9112 114.367 89.2943 116.43 89.2943H121.116V99.197H113.512ZM65.7211 100.258C59.5908 100.258 54.5216 98.9613 50.5134 96.3677C46.5641 93.7152 44.1768 89.8248 43.3516 84.6966H56.9678C57.4394 86.9365 58.5004 88.5575 60.1508 89.5596C61.8602 90.5616 63.8938 91.0627 66.2516 91.0627C69.1989 91.0627 71.4388 90.6206 72.9713 89.7364C74.5628 88.8522 75.3586 87.6144 75.3586 86.0229C75.3586 85.0208 75.0933 84.1956 74.5628 83.5472C74.0913 82.8399 73.2366 82.2504 71.9987 81.7789C70.7609 81.2484 69.0515 80.7179 66.8705 80.1874L58.3825 78.3306C53.7258 77.3285 50.2186 75.737 47.8608 73.5561C45.503 71.3751 44.3242 68.5163 44.3242 64.9796C44.3242 62.0324 45.2378 59.4388 47.0651 57.1989C48.9513 54.9 51.4859 53.1612 54.669 51.9823C57.852 50.7444 61.3592 50.1255 65.1906 50.1255C68.9041 50.1255 72.2934 50.656 75.3586 51.717C78.4237 52.7191 80.9878 54.2516 83.0509 56.3147C85.1729 58.3778 86.5876 60.9124 87.2949 63.9186H73.6787C73.1482 62.445 72.1166 61.325 70.584 60.5587C69.0515 59.7335 67.2831 59.3209 65.279 59.3209C62.9802 59.3209 61.0645 59.7335 59.5319 60.5587C57.9993 61.384 57.2331 62.5039 57.2331 63.9186C57.2331 65.2154 57.8225 66.2174 59.0014 66.9248C60.2392 67.5732 62.2139 68.1921 64.9253 68.7815L73.4134 70.6383C78.4827 71.7583 82.2257 73.4677 84.6424 75.7665C87.0591 78.0653 88.2675 81.1305 88.2675 84.9619C88.2675 88.1449 87.2949 90.8858 85.3497 93.1847C83.4046 95.4835 80.7226 97.2519 77.3038 98.4897C73.885 99.6686 70.0241 100.258 65.7211 100.258Z" fill="black"/>
</g>
<defs>
<linearGradient id="paint0_linear_80_202" x1="4.95" y1="15.2625" x2="132" y2="99.825" gradientUnits="userSpaceOnUse">
<stop stop-color="#866FF5"/>
<stop offset="0.623931" stop-color="#E577BB"/>
<stop offset="1" stop-color="#BC3194"/>
</linearGradient>
<clipPath id="clip0_80_202">
<rect width="132" height="132" rx="30" fill="white"/>
</clipPath>
</defs>
</svg>
